<?xml version="1.0" standalone="no"?>
<!DOCTYPE svg PUBLIC "-//W3C//DTD SVG 20010904//EN"
 "http://www.w3.org/TR/2001/REC-SVG-20010904/DTD/svg10.dtd">
<svg version="1.0" xmlns="http://www.w3.org/2000/svg"
 width="1773.000000pt" height="887.000000pt" viewBox="0 0 1773.000000 887.000000"
 preserveAspectRatio="xMidYMid meet">

<g transform="translate(0.000000,887.000000) scale(0.100000,-0.100000)"
fill="#000000" stroke="none">
<path d="M0 4435 l0 -4435 8865 0 8865 0 0 4435 0 4435 -8865 0 -8865 0 0
-4435z m14330 3392 c387 -56 725 -160 1049 -321 513 -255 914 -596 1247 -1061
357 -498 583 -1113 635 -1724 14 -173 7 -537 -15 -691 -53 -381 -180 -771
-366 -1127 -109 -208 -219 -378 -380 -585 -91 -117 -395 -419 -520 -518 -502
-394 -1123 -639 -1775 -700 -128 -12 -10510 -12 -10615 0 -36 4 2334 8 5265 8
5811 1 5388 -3 5701 57 146 28 337 80 449 122 195 73 402 168 509 232 65 39
121 71 123 71 14 0 260 173 333 233 119 99 317 294 417 410 201 232 443 629
581 952 42 98 137 359 155 425 34 125 69 289 78 370 5 47 14 111 20 144 13 71
17 484 6 621 -29 380 -157 826 -343 1199 -145 289 -296 521 -472 726 -119 138
-342 356 -308 301 5 -7 1 -9 -8 -5 -9 3 -16 9 -16 13 0 3 -17 17 -38 31 -20
14 -64 47 -98 75 -129 105 -265 195 -315 208 -14 4 -38 18 -55 32 -16 14 -33
25 -38 25 -9 0 -82 31 -118 51 -10 5 -24 9 -31 9 -8 0 -22 9 -32 20 -10 11
-25 20 -33 20 -8 0 -31 8 -51 19 -163 83 -256 121 -295 121 -18 0 -37 5 -43
11 -6 6 -17 12 -24 13 -8 2 -27 9 -44 15 -61 26 -311 100 -350 104 -22 3 -80
12 -130 21 -318 57 -713 61 -6085 61 -4483 0 -4732 -1 -4855 -18 -212 -29
-419 -74 -610 -134 -99 -30 -192 -62 -207 -69 -15 -8 -60 -26 -100 -40 -40
-15 -80 -32 -88 -39 -25 -20 -44 -29 -36 -17 11 18 -46 -5 -184 -75 -69 -35
-114 -54 -100 -43 46 37 374 196 510 247 304 115 643 190 980 216 25 2 2421 3
5325 2 4902 -1 5288 -2 5395 -18z m90 -220 c150 -26 339 -70 455 -107 332
-106 703 -304 985 -526 112 -88 395 -373 494 -498 379 -474 634 -1100 696
-1709 18 -176 8 -574 -19 -752 -102 -663 -429 -1313 -896 -1781 -289 -289
-590 -492 -980 -662 -151 -66 -497 -173 -511 -159 -2 2 54 21 124 41 371 111
767 318 1039 543 45 37 110 91 144 118 218 176 446 458 603 745 16 30 36 59
43 63 26 16 185 362 233 507 26 80 51 161 55 180 4 19 13 54 20 76 13 39 56
260 69 349 3 25 0 50 -8 66 -7 14 -16 47 -20 73 -7 45 -6 47 12 37 18 -10 21
-7 27 32 6 37 10 218 6 272 -1 10 -7 25 -13 32 -6 7 -7 13 -2 13 5 0 2 5 -6
10 -13 9 -13 10 0 10 12 0 15 16 12 97 -1 68 -6 101 -16 108 -7 6 -14 15 -15
20 -4 29 -14 45 -27 45 -8 0 -14 6 -15 13 -2 25 -7 53 -17 85 -6 17 -9 32 -6
32 2 0 -7 23 -21 50 -28 55 -25 60 20 30 37 -25 53 -26 33 -2 -24 29 -40 74
-55 152 -12 68 -20 109 -22 119 -1 2 -8 -2 -16 -9 -12 -10 -15 -10 -15 4 0 9
1 17 2 19 1 1 -4 11 -10 23 -6 11 -13 33 -16 48 -3 14 -19 52 -36 84 -18 31
-53 95 -78 142 -24 47 -51 89 -58 93 -8 4 -14 12 -14 18 0 5 -11 22 -25 37
-14 15 -25 32 -25 39 0 7 -13 19 -29 27 -16 9 -32 27 -35 41 -4 14 -11 25 -16
25 -6 0 -10 6 -10 13 0 6 -21 34 -45 61 -25 27 -43 51 -40 54 2 3 -17 21 -43
41 -75 57 -120 102 -150 148 -15 24 -30 43 -34 43 -13 0 -108 95 -108 108 0 7
-5 12 -10 12 -6 0 -28 16 -50 36 -22 20 -51 43 -67 51 -15 7 -38 28 -52 46
-14 17 -46 53 -71 78 -25 25 -60 65 -79 87 -19 23 -39 38 -44 35 -6 -3 -7 -1
-3 5 3 6 0 14 -7 19 -8 4 -22 20 -31 35 -9 14 -42 39 -73 54 -31 15 -66 35
-77 45 -12 10 -25 18 -30 18 -5 0 -12 4 -15 9 -6 10 -147 83 -156 81 -13 -2
-65 24 -65 33 0 5 -4 6 -10 3 -5 -3 -10 -1 -10 5 0 6 -4 9 -9 5 -5 -3 -12 -1
-16 5 -3 5 -15 10 -26 10 -11 0 -22 7 -25 15 -4 8 -10 12 -15 9 -5 -3 -9 1 -9
9 0 14 -66 51 -112 62 -16 4 -28 11 -28 17 0 5 -4 6 -10 3 -5 -3 -10 -1 -10 5
0 6 -4 8 -10 5 -5 -3 -10 1 -10 10 0 9 -4 14 -9 11 -4 -3 -19 6 -31 19 -13 14
-31 25 -39 25 -26 0 -95 65 -86 80 5 9 4 11 -3 6 -11 -7 -13 -2 -16 44 -1 10
-10 14 -31 13 -17 -1 -24 0 -17 3 6 3 9 10 6 15 -4 6 -11 6 -19 -1 -8 -7 -19
-9 -26 -5 -8 6 -8 10 1 15 7 4 10 15 7 25 -4 9 -11 14 -16 11 -12 -8 -42 4
-36 14 8 13 -6 40 -21 40 -8 0 -25 7 -38 15 -12 8 -42 19 -67 24 -24 5 -62 15
-84 20 -129 35 -304 39 -1615 42 -1832 3 -9119 -10 -9215 -17 -114 -8 -238
-31 -325 -59 -41 -13 -86 -26 -100 -29 -14 -3 -40 -9 -58 -15 -18 -5 -35 -10
-37 -10 -37 1 -109 -26 -138 -52 -10 -9 -35 -22 -57 -29 -22 -7 -40 -17 -40
-22 0 -4 -11 -8 -25 -8 -14 0 -25 -4 -25 -9 0 -5 -20 -18 -44 -30 -25 -11 -60
-33 -78 -49 -18 -15 -81 -59 -140 -98 -59 -38 -110 -76 -113 -84 -3 -8 -24
-26 -46 -40 -23 -14 -56 -37 -73 -52 -17 -15 -35 -28 -41 -28 -10 0 -22 -10
-225 -200 -97 -91 -662 -654 -776 -774 -12 -13 -32 -31 -46 -42 -13 -10 -32
-30 -42 -44 l-18 -25 7 25 c4 14 31 77 61 140 31 63 51 111 46 105 -38 -42
-129 -188 -238 -380 -29 -51 -105 -239 -135 -332 -12 -40 -25 -71 -27 -68 -7
7 76 249 124 357 117 268 277 538 444 748 104 132 331 358 475 474 351 281
766 486 1195 589 99 24 327 63 415 70 22 2 2470 3 5440 3 5147 -1 5405 -2
5505 -19z m-12035 -127 c-3 -5 -12 -10 -18 -10 -7 0 -6 4 3 10 19 12 23 12 15
0z m-314 -139 c-31 -23 -90 -57 -76 -44 13 14 88 63 95 63 3 0 -6 -9 -19 -19z
m-91 -56 c0 -2 -20 -18 -45 -35 -57 -39 -59 -32 -3 9 43 32 48 34 48 26z
m-105 -75 c-3 -5 -20 -19 -38 -30 l-32 -22 35 31 c35 32 46 38 35 21z m12866
-53 c-1 -12 -15 -9 -19 4 -3 6 1 10 8 8 6 -3 11 -8 11 -12z m-3575 -174 c13
-12 24 -26 24 -32 0 -5 15 -11 33 -13 l32 -4 -29 -8 c-37 -11 -89 -70 -97
-110 l-6 -31 -2 31 c-1 43 -59 104 -98 104 -15 0 -35 5 -43 10 -11 7 -4 10 27
10 34 0 47 6 77 36 25 25 36 45 37 68 l1 31 10 -35 c5 -19 21 -44 34 -57z
m3583 40 c-15 -17 -33 -17 -48 1 -9 11 -8 18 5 30 15 16 18 16 35 0 14 -13 16
-20 8 -31z m316 -33 c3 -5 1 -10 -4 -10 -6 0 -11 5 -11 10 0 6 2 10 4 10 3 0
8 -4 11 -10z m-13465 -4 c0 -2 -8 -10 -17 -17 -16 -13 -17 -12 -4 4 13 16 21
21 21 13z m13640 -26 c0 -5 -7 -10 -15 -10 -8 0 -15 5 -15 10 0 6 7 10 15 10
8 0 15 -4 15 -10z m-6875 -54 c16 -12 17 -16 6 -30 -17 -20 -61 -17 -61 4 0
16 18 40 30 40 3 0 15 -6 25 -14z m7091 -61 c10 -8 14 -15 8 -15 -5 0 -19 7
-30 15 -10 8 -14 15 -8 15 5 0 19 -7 30 -15z m-13956 2 c0 -2 -12 -14 -27 -28
l-28 -24 24 28 c23 25 31 32 31 24z m5104 -62 c18 -18 39 -35 47 -38 10 -4 8
-8 -8 -12 -12 -4 -25 -16 -28 -26 -4 -11 -15 -24 -26 -29 -10 -6 -20 -21 -20
-33 -1 -19 -2 -20 -6 -3 -6 22 -62 78 -95 94 l-23 11 22 0 c25 1 92 65 94 90
1 12 3 11 6 -3 3 -10 19 -33 37 -51z m8370 11 c164 -49 297 -125 428 -245 60
-55 175 -198 166 -207 -3 -3 -16 10 -29 28 -36 51 -121 143 -131 140 -9 -2
-11 -1 -73 55 -22 20 -53 42 -70 49 -16 7 -41 24 -54 38 -21 23 -65 39 -111
40 -8 1 -15 8 -15 16 0 31 -121 76 -260 97 -27 5 -97 8 -155 7 -92 -1 -119 -6
-215 -37 -68 -23 -131 -51 -164 -74 -29 -21 -75 -51 -101 -68 -52 -32 -192
-161 -229 -210 l-22 -30 18 33 c92 167 334 336 549 382 133 29 345 23 468 -14z
m-2167 -93 c5 -15 -28 -26 -41 -13 -8 8 -7 14 4 20 17 11 32 8 37 -7z m-8593
-39 c595 -83 1175 -459 1494 -969 161 -258 260 -516 318 -826 26 -134 26 -493
0 -634 -38 -216 -105 -427 -190 -596 -351 -702 -988 -1136 -1764 -1201 -592
-49 -1223 187 -1649 619 -358 363 -573 814 -623 1302 -49 487 106 1024 421
1454 87 120 301 338 414 424 252 190 516 317 820 392 76 19 246 46 345 55 76
7 299 -4 414 -20z m-2947 -66 c-90 -104 -227 -288 -283 -378 -220 -362 -394
-837 -459 -1259 -78 -502 -39 -998 117 -1481 207 -639 574 -1180 1103 -1626
94 -79 253 -196 364 -269 94 -62 359 -203 476 -253 28 -12 39 -19 25 -16 -54
14 -262 108 -383 175 -289 158 -523 333 -757 568 -384 385 -657 832 -835 1366
-120 359 -168 656 -168 1035 0 417 58 749 198 1135 61 168 162 394 232 520 59
106 219 355 227 355 3 0 -4 -16 -15 -35 -34 -57 -15 -40 42 38 49 66 156 187
166 187 3 0 -20 -28 -50 -62z m14341 -37 c3 -8 -1 -12 -9 -9 -7 2 -15 10 -17
17 -3 8 1 12 9 9 7 -2 15 -10 17 -17z m-5448 -216 c0 -8 -7 -15 -15 -15 -16 0
-20 12 -8 23 11 12 23 8 23 -8z m3423 -52 c-7 -2 -19 -2 -25 0 -7 3 -2 5 12 5
14 0 19 -2 13 -5z m-11433 -56 c0 -2 -19 -21 -42 -42 l-43 -40 40 43 c36 39
45 47 45 39z m9354 -100 c13 -36 -2 -61 -38 -65 -34 -4 -56 13 -56 44 0 56 76
74 94 21z m-9464 -21 c0 -2 -8 -10 -17 -17 -16 -13 -17 -12 -4 4 13 16 21 21
21 13z m-103 -129 c-34 -46 -70 -94 -80 -107 -26 -36 -9 -2 24 45 33 50 108
145 114 145 2 0 -24 -37 -58 -83z m14101 66 c5 -17 -26 -29 -40 -15 -6 6 -7
15 -3 22 9 14 37 9 43 -7z m-6998 -53 c38 -38 18 -90 -35 -90 -54 0 -76 64
-33 94 30 21 44 20 68 -4z m6060 -225 c17 -20 -3 -45 -30 -38 -22 6 -27 38 -7
46 20 9 24 8 37 -8z m-768 -340 c9 -19 8 -29 -6 -50 -19 -29 -42 -32 -68 -8
-21 18 -24 53 -6 71 22 22 67 14 80 -13z m1789 -148 c-13 -13 -26 -3 -16 12 3
6 11 8 17 5 6 -4 6 -10 -1 -17z m-8316 -81 c13 -8 26 -25 30 -36 5 -15 16 -20
43 -22 l37 -1 -38 -4 c-28 -3 -41 -10 -49 -28 -6 -14 -19 -27 -30 -30 -11 -4
-18 -17 -19 -33 -1 -19 -3 -21 -6 -9 -3 11 -22 36 -44 58 -32 32 -46 39 -81
40 l-43 2 49 7 c28 3 52 12 54 19 2 7 17 24 33 39 16 14 30 35 30 46 2 15 3
14 6 -6 2 -14 15 -33 28 -42z m8138 -220 c32 -7 61 -17 65 -21 10 -10 -64 1
-123 18 -65 20 -22 22 58 3z m-386 -2 c-3 -3 -12 -4 -19 -1 -8 3 -5 6 6 6 11
1 17 -2 13 -5z m-40 -10 c-3 -3 -12 -4 -19 -1 -8 3 -5 6 6 6 11 1 17 -2 13 -5z
m-57 -13 c-8 -5 -26 -11 -40 -15 -21 -5 -20 -3 5 9 32 15 60 20 35 6z m-80
-31 c-8 -5 -19 -10 -25 -10 -5 0 -3 5 5 10 8 5 20 10 25 10 6 0 3 -5 -5 -10z
m-140 -79 c-12 -24 -58 -61 -75 -61 -6 0 -40 -25 -76 -56 -59 -52 -59 -51 13
20 64 62 131 116 146 116 1 0 -2 -9 -8 -19z m-1640 -41 c11 -11 20 -24 20 -30
0 -13 -37 -50 -50 -50 -5 0 -19 9 -30 20 -21 21 -18 46 8 68 21 16 29 15 52
-8z m1053 -537 c-7 -2 -19 -2 -25 0 -7 3 -2 5 12 5 14 0 19 -2 13 -5z m-139
-18 c-135 -24 -247 -67 -364 -137 -60 -37 -182 -129 -234 -177 -71 -67 -190
-219 -236 -303 -44 -81 -51 -85 -20 -12 93 215 297 428 515 536 120 60 278
106 365 106 40 0 37 -1 -26 -13z m283 9 c-3 -3 -12 -4 -19 -1 -8 3 -5 6 6 6
11 1 17 -2 13 -5z m137 -24 c63 -18 113 -42 56 -26 -14 3 -58 13 -99 21 -41 8
-76 17 -79 20 -12 12 58 4 122 -15z m-7954 -65 c15 -19 6 -61 -16 -69 -44 -17
-74 22 -49 60 18 27 47 31 65 9z m4817 -79 c5 -8 17 -16 28 -19 19 -4 18 -5
-2 -6 -12 0 -24 -10 -28 -20 -3 -11 -17 -26 -30 -35 -23 -15 -27 -15 -50 0
-13 9 -27 24 -30 35 -4 10 -16 20 -28 20 l-22 2 22 4 c12 2 25 13 28 23 3 10
15 22 26 25 10 4 19 11 19 16 0 12 56 -26 67 -45z m-3837 -336 c8 -5 15 -23
16 -40 1 -17 -1 -29 -3 -26 -3 3 -18 -1 -33 -9 -20 -10 -30 -11 -39 -2 -18 18
-13 55 11 71 26 19 28 19 48 6z m-7163 -112 c-3 -8 -6 -5 -6 6 -1 11 2 17 5
13 3 -3 4 -12 1 -19z m131 -363 c11 -27 45 -102 76 -165 49 -101 83 -159 210
-360 16 -25 53 -72 82 -106 29 -34 83 -99 120 -145 90 -114 318 -357 423 -451
399 -360 905 -591 1491 -683 47 -7 72 -13 55 -14 -51 -2 -266 37 -406 73 -547
141 -1072 459 -1466 888 -301 328 -535 733 -672 1162 -57 179 -50 180 13 1 29
-82 62 -172 74 -200z m12703 248 c-12 -20 -14 -14 -5 12 4 9 9 14 11 11 3 -2
0 -13 -6 -23z m-311 -73 c77 -23 216 -86 226 -102 3 -5 -18 3 -47 18 -252 127
-497 134 -756 20 -134 -59 -277 -178 -394 -329 -88 -113 -92 -118 -82 -92 25
64 88 151 167 233 142 147 281 224 501 276 11 3 85 3 165 1 113 -2 162 -8 220
-25z m-3824 -268 c19 -12 34 -50 28 -67 -7 -16 -35 -35 -53 -35 -16 0 -51 38
-51 55 0 18 35 55 53 55 6 0 17 -4 23 -8z m5670 -63 c3 -6 1 -16 -5 -22 -9 -9
-14 -8 -21 3 -9 15 -4 30 10 30 5 0 12 -5 16 -11z m-6613 -436 c30 -15 32 -19
15 -29 -7 -5 -8 -3 -3 6 6 10 4 12 -7 8 -14 -6 -78 25 -78 38 0 7 37 -4 73
-23z m6210 -62 c-40 -21 -104 -61 -143 -90 -76 -55 -97 -54 -27 2 70 56 107
79 166 103 84 35 85 28 4 -15z m-11443 -491 c58 -17 86 -27 62 -24 -41 6 -197
52 -177 52 6 1 57 -12 115 -28z m210 -45 l65 -15 -56 6 c-32 3 -70 9 -85 14
-47 14 3 10 76 -5z m10987 -711 c-3 -3 -12 -4 -19 -1 -8 3 -5 6 6 6 11 1 17
-2 13 -5z m-11040 -30 c-3 -3 -12 -4 -19 -1 -8 3 -5 6 6 6 11 1 17 -2 13 -5z
m-699 -89 c37 -13 62 -24 56 -24 -14 -1 -155 47 -163 55 -7 7 15 1 107 -31z
m369 -101 c-3 -3 -12 -4 -19 -1 -8 3 -5 6 6 6 11 1 17 -2 13 -5z m336 -51 c-7
-2 -21 -2 -30 0 -10 3 -4 5 12 5 17 0 24 -2 18 -5z"/>
</g>
</svg>
