<?xml version="1.0" standalone="no"?>
<!DOCTYPE svg PUBLIC "-//W3C//DTD SVG 20010904//EN"
 "http://www.w3.org/TR/2001/REC-SVG-20010904/DTD/svg10.dtd">
<svg version="1.0" xmlns="http://www.w3.org/2000/svg"
 width="1851.000000pt" height="850.000000pt" viewBox="0 0 1851.000000 850.000000"
 preserveAspectRatio="xMidYMid meet">

<g transform="translate(0.000000,850.000000) scale(0.100000,-0.100000)"
fill="#000000" stroke="none">
<path d="M3203 6500 c-369 -37 -738 -167 -1041 -367 -675 -445 -1101 -1234
-1102 -2043 0 -180 11 -284 49 -476 134 -664 538 -1255 1110 -1623 185 -119
513 -253 711 -290 248 -46 -93 -44 6250 -40 1676 1 2884 5 2841 10 -40 5
-2047 10 -4460 12 -4853 3 -4429 -3 -4707 65 -702 172 -1305 721 -1599 1453
-238 591 -229 1244 24 1849 71 169 236 439 356 585 374 453 830 720 1415 827
l125 23 3240 1 c4869 1 6813 5 6783 14 -35 10 -9889 10 -9995 0z"/>
<path d="M13380 6499 c-52 -3 236 -6 640 -6 404 0 728 1 720 3 -27 6 -1262 9
-1360 3z"/>
<path d="M14873 6493 c9 -2 23 -2 30 0 6 3 -1 5 -18 5 -16 0 -22 -2 -12 -5z"/>
<path d="M8120 6466 c-4 -3 -1034 -8 -2290 -11 -2281 -5 -2514 -7 -2665 -26
-184 -23 -471 -94 -545 -135 l-25 -14 29 6 c19 5 27 3 22 -4 -3 -6 -21 -14
-39 -17 -17 -4 -53 -18 -79 -31 -53 -27 -82 -32 -52 -9 18 14 17 15 -8 5 -81
-28 -260 -138 -406 -248 -394 -295 -714 -762 -851 -1242 -69 -241 -96 -435
-94 -690 1 -158 5 -210 31 -360 34 -190 57 -280 73 -280 6 0 8 -8 4 -19 -16
-51 200 -510 285 -605 25 -28 54 -64 65 -81 55 -87 270 -321 385 -419 88 -75
213 -166 313 -230 100 -63 331 -174 444 -213 59 -20 113 -43 119 -51 7 -9 29
-15 57 -16 25 -1 43 -5 40 -10 -4 -5 6 -6 21 -2 16 4 25 3 22 -2 -8 -13 136
-36 176 -28 21 4 28 3 19 -3 -8 -5 40 -11 130 -16 292 -14 8170 13 8185 28 4
4 -22 8 -57 8 l-64 2 78 7 c57 6 82 12 91 25 9 13 20 16 39 11 16 -4 27 -2 27
4 0 5 -8 11 -17 11 -10 1 -81 5 -158 8 -99 5 -4 8 319 9 253 1 457 5 453 8 -3
4 -2035 10 -4514 14 l-4508 7 -115 26 c-227 51 -374 101 -537 182 -233 115
-416 247 -609 439 -362 360 -592 828 -654 1331 -16 130 -14 409 5 550 65 497
277 948 605 1289 298 311 655 516 1065 614 276 66 -160 61 5635 64 5520 3
7012 8 6400 19 -243 5 -354 11 -405 22 -38 9 -92 19 -120 24 -47 7 -44 8 50
14 55 3 -120 5 -390 6 -269 0 -472 -3 -450 -6 78 -12 7 -21 -108 -13 -85 5
-102 8 -72 13 28 4 12 6 -50 7 -52 0 -79 -3 -65 -7 20 -6 15 -9 -30 -14 -108
-13 -217 -6 -204 14 3 5 -97 9 -233 8 -142 0 -230 -4 -218 -9 14 -6 5 -9 -35
-9 -40 0 -49 3 -35 9 14 6 -6 9 -60 9 -44 1 -267 4 -495 6 -228 3 -1083 8
-1900 12 -817 3 -1514 6 -1550 6 -36 1 -131 0 -211 -2 -80 -1 -172 1 -205 4
-32 4 -61 4 -64 1z m5817 -43 c-20 -2 -52 -2 -70 0 -17 2 0 4 38 4 39 0 53 -2
32 -4z m406 0 c3 -5 -32 -7 -76 -5 -141 4 -156 9 -40 10 61 1 114 -1 116 -5z
m-11963 -257 c0 -2 -26 -19 -57 -38 -121 -74 -139 -73 -24 1 58 37 81 48 81
37z m8887 -4342 c-3 -3 -12 -4 -19 -1 -8 3 -5 6 6 6 11 1 17 -2 13 -5z"/>
<path d="M5275 6322 c-22 -2 -45 -8 -51 -13 -13 -10 -424 -19 -1102 -23 -271
-2 -495 -6 -499 -10 -3 -3 -19 -6 -35 -6 -31 0 -39 -16 -10 -22 9 -2 -28 -12
-83 -22 -219 -41 -496 -116 -609 -164 -139 -60 -356 -194 -447 -276 -54 -48
-107 -90 -164 -129 -47 -32 -299 -286 -370 -372 -28 -33 -81 -94 -118 -135
-95 -102 -146 -176 -218 -316 -76 -147 -88 -166 -98 -160 -22 14 -63 -74 -81
-171 -6 -32 -17 -87 -25 -123 l-15 -65 6 63 c6 75 34 204 68 322 32 107 32
124 1 43 -27 -71 -67 -241 -90 -388 -17 -103 -23 -397 -10 -491 21 -155 77
-383 125 -508 75 -193 271 -529 300 -511 4 2 15 -4 25 -15 9 -10 22 -17 28
-15 7 2 41 -30 77 -72 74 -86 178 -169 193 -154 11 11 83 -37 125 -83 40 -44
124 -127 160 -160 27 -24 38 -27 67 -22 29 6 43 2 78 -23 24 -16 62 -34 85
-40 23 -7 64 -23 91 -36 27 -14 52 -25 56 -25 8 0 38 -13 170 -75 182 -86 270
-110 435 -121 89 -6 150 -20 150 -34 0 -5 10 -12 23 -16 l22 -8 -25 -6 c-56
-14 1812 -21 2540 -8 116 1 119 2 50 8 -41 4 -61 8 -45 9 17 1 39 4 50 7 22 4
82 6 105 3 8 -1 31 1 50 4 19 3 82 11 140 17 58 6 132 16 165 21 33 6 67 11
75 12 8 1 17 5 20 9 3 4 32 10 65 13 32 3 65 10 72 16 7 7 13 9 13 5 0 -4 10
0 23 8 12 9 37 16 55 18 22 1 31 7 28 15 -4 9 3 8 20 -3 13 -9 27 -14 31 -10
3 3 1 6 -5 6 -7 0 -12 5 -12 10 0 6 7 10 15 10 10 0 12 6 8 18 -6 14 -4 15 9
4 13 -10 17 -10 22 3 7 18 -2 45 -16 45 -5 0 -6 5 -3 10 4 6 10 8 14 6 3 -3 7
4 7 14 0 11 -5 16 -15 12 -10 -4 -12 -2 -5 9 11 19 14 100 3 93 -5 -3 -9 2 -9
10 0 9 8 16 18 17 14 0 13 3 -7 16 -13 9 -31 18 -40 19 -9 1 -26 5 -38 7 -18
5 -23 0 -28 -24 -4 -16 -11 -26 -16 -23 -6 3 -18 -3 -27 -13 -14 -15 -30 -18
-82 -17 -67 2 -78 5 -142 31 -30 13 -36 19 -27 30 9 10 8 17 -1 28 -7 8 -16
13 -20 10 -4 -2 -21 6 -39 19 -22 17 -44 23 -72 22 -21 0 -39 2 -39 5 0 4 -19
9 -41 13 -46 7 -83 29 -71 40 4 5 -11 -2 -33 -15 -35 -20 -38 -20 -23 -3 29
33 120 82 183 99 76 19 194 19 270 0 59 -16 59 -16 77 7 24 32 23 38 -12 45
-16 3 -30 8 -30 12 0 4 -9 7 -21 8 -11 1 -37 14 -57 30 -20 15 -40 27 -44 26
-4 -2 -6 11 -4 28 2 17 -3 36 -11 45 -8 8 -13 20 -10 27 3 7 -1 24 -9 38 -7
13 -14 40 -14 59 -1 43 -47 104 -81 105 -13 1 -35 8 -49 15 -14 7 -26 13 -27
12 -2 -1 -4 -2 -5 -1 -2 0 -25 2 -51 4 -27 2 -54 9 -62 15 -8 7 -28 9 -49 4
-32 -6 -36 -4 -36 15 0 12 -4 20 -9 17 -5 -3 -11 3 -14 14 -3 11 -13 20 -22
20 -9 0 -23 7 -32 16 -9 8 -22 13 -29 10 -8 -3 -11 0 -7 10 6 17 -8 19 -24 3
-6 -6 -17 -8 -24 -4 -9 6 -7 12 7 23 16 13 17 14 2 9 -12 -4 -18 -1 -18 8 0 7
10 15 22 17 24 3 38 28 16 28 -8 0 -45 -11 -83 -24 -39 -13 -79 -26 -90 -30
-11 -3 12 9 50 28 288 139 651 48 869 -219 49 -60 111 -180 122 -234 5 -24 11
-31 23 -26 71 28 144 47 199 54 73 9 222 -2 266 -19 16 -6 31 -8 34 -6 2 3
-24 13 -58 23 l-62 17 6 54 c8 70 68 209 121 281 114 155 278 243 481 260 66
5 82 9 47 10 -28 0 -55 6 -58 11 -3 6 -15 10 -25 10 -29 0 -35 21 -12 39 15
12 19 23 15 44 -3 16 -11 31 -17 33 -6 2 -13 27 -14 54 -3 81 -13 100 -51 100
-12 0 -21 4 -21 10 0 5 -14 22 -30 37 -17 15 -28 33 -26 40 3 7 1 13 -4 13 -6
0 -10 6 -10 13 0 7 -27 37 -60 67 l-61 55 -87 6 c-67 4 -93 2 -112 -10 -15 -9
-55 -16 -105 -17 -44 -2 -97 -6 -119 -10 -28 -5 -37 -3 -32 5 4 6 2 11 -4 11
-12 0 -29 13 -65 50 -26 26 -33 50 -14 50 5 0 7 5 3 11 -9 14 -55 -42 -94
-114 -18 -32 -34 -56 -37 -53 -15 15 77 148 156 226 143 142 310 210 516 210
312 0 591 -189 709 -480 14 -35 26 -71 26 -79 0 -13 14 -16 83 -16 45 0 72 1
60 3 -12 2 -24 10 -27 18 -7 17 3 44 15 44 6 0 1 10 -11 22 -32 35 -28 39 38
42 9 1 20 6 24 11 5 7 14 6 28 -2 11 -7 28 -13 39 -13 10 0 35 -7 56 -16 34
-14 39 -14 54 0 10 9 21 16 26 16 5 0 16 7 26 16 10 9 34 16 53 17 20 1 36 5
36 9 0 4 -5 8 -11 8 -8 0 -7 6 2 17 17 19 21 81 7 107 -6 11 -6 16 -1 13 6 -4
6 7 0 26 -9 27 -15 32 -44 33 -18 1 -41 2 -51 3 -11 0 -35 17 -55 36 -20 19
-41 35 -47 35 -6 0 1 11 16 25 15 14 33 25 40 25 7 0 17 7 22 16 6 11 11 13
16 5 5 -8 13 -8 28 0 14 8 23 8 31 0 6 -6 18 -11 27 -11 9 0 25 -9 34 -19 13
-15 27 -18 64 -15 81 8 178 21 159 23 -15 1 -13 6 12 34 33 34 38 47 19 47 -6
0 -8 3 -5 7 4 3 2 12 -3 18 -7 9 -6 16 5 25 23 19 18 30 -12 31 l-28 1 25 8
25 7 -28 12 c-16 6 -26 15 -22 20 3 5 1 12 -5 16 -6 4 -8 11 -5 16 4 5 -2 6
-12 2 -16 -6 -16 -5 -5 10 8 9 11 21 7 27 -4 6 -3 10 2 9 4 -1 16 1 26 6 15 6
16 10 5 17 -21 14 21 40 57 35 20 -3 34 1 42 12 9 13 14 14 24 4 7 -7 21 -13
31 -13 10 0 18 -4 18 -8 0 -5 19 -18 43 -30 79 -39 232 -38 294 3 15 11 35 20
43 21 8 1 41 5 73 9 31 3 57 11 57 16 0 5 5 9 10 9 19 0 60 48 60 70 0 11 -4
20 -10 20 -5 0 -10 5 -10 11 0 16 -42 48 -62 49 -10 0 -18 5 -18 10 0 6 -6 10
-14 10 -22 0 -89 72 -76 80 9 6 9 13 1 28 -6 12 -7 22 -2 24 5 2 11 9 13 17 2
8 17 27 33 43 17 17 23 26 15 22 -12 -7 -13 -5 -2 8 7 8 35 26 63 39 l50 24
-38 6 -38 6 45 1 c74 2 180 -25 269 -69 105 -52 209 -152 260 -249 19 -36 35
-66 36 -68 1 -1 13 2 26 8 23 10 23 10 2 6 -13 -2 -25 -1 -28 4 -9 14 -13 80
-5 75 5 -3 15 2 24 11 12 11 28 14 61 11 32 -4 45 -1 45 7 0 13 41 36 61 36 6
0 27 16 47 36 29 29 33 37 21 45 -8 5 -17 9 -21 9 -6 0 -5 9 7 48 6 18 14 22
34 20 21 -2 28 -10 36 -43 10 -40 10 -40 48 -34 21 3 43 11 50 18 6 6 20 11
32 11 12 0 27 6 33 12 7 7 32 20 55 29 23 10 41 22 40 28 -2 6 5 8 15 4 9 -3
14 -3 10 2 -4 4 -1 14 7 21 7 8 16 19 19 26 3 10 8 8 16 -4 6 -10 17 -18 25
-18 8 0 19 8 24 18 7 11 10 12 11 3 0 -13 14 -12 85 4 11 2 27 6 36 8 9 1 28
10 42 20 15 9 29 17 33 17 9 0 167 57 211 77 17 7 35 13 40 12 18 -3 32 2 47
17 9 8 16 11 16 5 0 -16 22 -13 61 6 37 19 142 27 168 14 16 -9 46 11 34 23
-12 12 8 6 31 -9 22 -15 25 -13 61 24 22 22 42 38 46 35 4 -2 9 3 12 11 5 11
18 13 59 8 29 -3 59 -11 67 -17 11 -8 13 -8 7 2 -5 8 0 12 13 12 12 0 21 3 21
8 0 4 21 16 48 26 26 11 58 28 71 38 13 10 30 18 38 18 7 0 17 10 22 23 11 28
81 50 166 52 33 1 67 5 77 9 9 4 38 5 65 3 26 -3 55 -1 64 4 25 13 99 19 99 8
0 -6 7 -6 19 1 11 5 35 10 53 10 19 0 39 5 44 10 13 13 125 16 219 7 50 -4 71
-3 77 6 6 9 10 9 16 -1 12 -18 37 -18 128 3 11 2 37 -4 57 -15 20 -11 37 -15
37 -10 0 7 30 10 83 10 95 -2 150 17 231 81 27 22 53 39 59 39 6 0 20 8 31 19
19 17 79 49 151 82 17 7 42 21 57 31 14 10 34 18 43 18 10 0 37 9 61 20 24 11
64 29 88 40 24 11 46 20 50 20 8 0 233 87 263 102 12 6 20 14 18 18 -3 4 4 10
14 13 14 3 18 11 14 26 -3 11 -9 19 -13 16 -4 -2 -15 4 -25 15 -10 11 -23 20
-28 20 -6 0 -18 7 -27 15 -15 13 -67 28 -137 39 -13 2 -28 8 -35 14 -15 11
-114 23 -233 27 -45 1 -92 8 -105 15 -14 7 -26 13 -27 12 -2 -1 -42 -2 -90 -2
-120 0 -89 15 39 19 211 6 100 11 -243 10 -195 0 -348 -3 -341 -6 30 -12 7
-23 -45 -22 -32 1 -48 4 -35 6 12 2 22 9 22 14 0 5 -152 9 -377 9 -563 1
-1699 9 -2378 17 -330 4 -784 8 -1010 8 -322 1 -416 4 -440 15 -18 8 -73 14
-140 15 -60 1 -96 -1 -80 -4 26 -6 23 -8 -25 -14 -89 -11 -568 -8 -575 3 -8
13 -120 10 -165 -5 -19 -6 -73 -11 -120 -10 -47 1 -153 2 -237 3 -123 2 -155
5 -167 18 -13 13 -30 14 -89 9 -39 -3 -110 -8 -156 -10 -47 -2 -103 -6 -125
-9 -144 -20 -458 -25 -499 -8 -16 7 -61 12 -100 12 -50 0 -67 3 -57 10 10 7
-18 10 -88 10 -66 0 -101 -4 -97 -10 8 -13 -14 -14 -205 -16 -85 -1 -278 -5
-428 -9 -235 -6 -275 -5 -290 8 -18 15 -105 25 -177 19z m7923 -79 c-10 -2
-26 -2 -35 0 -10 3 -2 5 17 5 19 0 27 -2 18 -5z m295 0 c-18 -2 -48 -2 -65 0
-18 2 -4 4 32 4 36 0 50 -2 33 -4z m305 0 c-10 -2 -28 -2 -40 0 -13 2 -5 4 17
4 22 1 32 -1 23 -4z m-614 -362 c-5 -6 -54 -10 -54 -4 0 1 10 13 23 25 21 22
22 22 30 4 4 -10 5 -22 1 -25z m426 10 c0 -6 -4 -13 -10 -16 -5 -3 -10 1 -10
9 0 9 5 16 10 16 6 0 10 -4 10 -9z m-5760 -32 c0 -5 -4 -9 -10 -9 -5 0 -10 7
-10 16 0 8 5 12 10 9 6 -3 10 -10 10 -16z m2380 -9 c0 -5 -4 -10 -10 -10 -5 0
-10 5 -10 10 0 6 5 10 10 10 6 0 10 -4 10 -10z m-6163 -61 c17 -13 17 -15 -8
-39 l-26 -25 -26 26 c-21 22 -23 28 -12 33 9 3 20 18 26 33 11 27 11 27 19 7
5 -12 17 -28 27 -35z m8821 23 c2 -7 -6 -12 -17 -12 -21 0 -27 11 -14 24 9 9
26 2 31 -12z m-588 -22 c0 -5 -5 -10 -11 -10 -5 0 -7 5 -4 10 3 6 8 10 11 10
2 0 4 -4 4 -10z m-4010 -14 c0 -3 -4 -8 -10 -11 -5 -3 -10 -1 -10 4 0 6 5 11
10 11 6 0 10 -2 10 -4z m2730 -68 c0 -25 39 -48 83 -48 23 0 36 -4 32 -10 -3
-5 -21 -10 -40 -10 -51 0 -64 -9 -76 -54 l-12 -41 -7 32 c-10 46 -24 59 -73
68 l-42 8 50 11 c46 11 51 15 59 49 9 37 25 34 26 -5z m-3970 -46 c0 -34 22
-57 70 -70 35 -10 35 -10 6 -11 -34 -1 -76 -36 -76 -62 0 -10 -4 -21 -10 -24
-6 -3 -10 4 -10 16 0 33 -38 69 -74 70 l-31 1 36 12 c50 16 69 34 69 67 0 16
5 29 10 29 6 0 10 -13 10 -28z m5850 -66 c0 -3 -4 -8 -10 -11 -5 -3 -10 -1
-10 4 0 6 5 11 10 11 6 0 10 -2 10 -4z m-4100 -20 c0 -3 -4 -8 -10 -11 -5 -3
-10 -1 -10 4 0 6 5 11 10 11 6 0 10 -2 10 -4z m-4550 -31 c0 -8 -4 -15 -9 -15
-13 0 -22 16 -14 24 11 11 23 6 23 -9z m4950 -27 c0 -23 38 -48 75 -49 l30 -1
-35 -10 c-44 -12 -58 -24 -75 -62 -10 -24 -14 -27 -14 -11 -1 32 -30 65 -56
65 -13 0 -27 5 -30 10 -3 6 5 10 19 10 28 0 66 42 66 74 0 17 2 18 10 6 5 -8
10 -23 10 -32z m1381 -101 c-1 -12 -15 -9 -19 4 -3 6 1 10 8 8 6 -3 11 -8 11
-12z m1447 -28 c-2 -6 -8 -10 -13 -10 -5 0 -11 4 -13 10 -2 6 4 11 13 11 9 0
15 -5 13 -11z m-4403 -89 c3 -5 1 -10 -4 -10 -6 0 -11 5 -11 10 0 6 2 10 4 10
3 0 8 -4 11 -10z m-1062 -26 c3 -16 0 -28 -10 -31 -19 -8 -22 -2 -16 30 7 34
19 35 26 1z m-3651 -221 c10 -9 37 -19 60 -23 l43 -7 -40 -8 c-53 -10 -84 -40
-92 -89 l-6 -40 -12 49 c-15 56 -29 70 -88 80 l-42 8 42 7 c55 8 80 32 89 83
l7 42 11 -42 c6 -23 19 -50 28 -60z m8138 27 c0 -5 -7 -10 -15 -10 -8 0 -15 5
-15 10 0 6 7 10 15 10 8 0 15 -4 15 -10z m-5500 -114 c0 -3 -4 -8 -10 -11 -5
-3 -10 -1 -10 4 0 6 5 11 10 11 6 0 10 -2 10 -4z m-636 -165 c4 -6 22 -18 39
-25 30 -13 30 -14 8 -15 -33 -1 -61 -29 -61 -60 0 -23 -3 -20 -19 16 -16 35
-25 42 -53 46 l-33 3 33 9 c33 8 61 44 63 82 1 10 4 4 8 -13 4 -17 11 -36 15
-43z m2546 39 c0 -5 -4 -10 -10 -10 -5 0 -10 5 -10 10 0 6 5 10 10 10 6 0 10
-4 10 -10z m-5305 -90 c3 -5 1 -10 -4 -10 -6 0 -11 5 -11 10 0 6 2 10 4 10 3
0 8 -4 11 -10z m6435 -84 c-15 -15 -33 4 -19 20 10 12 14 12 20 2 5 -7 4 -17
-1 -22z m-2560 -50 c0 -11 -19 -15 -25 -6 -3 5 1 10 9 10 9 0 16 -2 16 -4z
m-576 -107 c-3 -5 -10 -7 -15 -3 -5 3 -7 10 -3 15 3 5 10 7 15 3 5 -3 7 -10 3
-15z m-4107 -276 c-2 -16 -4 -3 -4 27 0 30 2 43 4 28 2 -16 2 -40 0 -55z
m2143 -20 c18 -18 18 -19 0 -41 l-19 -23 -21 21 c-21 21 -21 23 -4 41 21 23
20 23 44 2z m-2153 -175 c-2 -24 -4 -5 -4 42 0 47 2 66 4 43 2 -24 2 -62 0
-85z m5303 66 c0 -8 -4 -12 -10 -9 -5 3 -10 10 -10 16 0 5 5 9 10 9 6 0 10 -7
10 -16z m-1740 -192 c0 -13 -12 -22 -22 -16 -10 6 -1 24 13 24 5 0 9 -4 9 -8z
m3506 -100 c-3 -3 -1 -11 4 -17 8 -9 6 -15 -6 -19 -20 -8 -20 -8 -28 24 -6 19
-5 21 3 10 9 -13 11 -12 11 3 0 10 5 15 11 12 6 -4 8 -10 5 -13z m-731 -2 c3
-5 1 -10 -4 -10 -6 0 -11 5 -11 10 0 6 2 10 4 10 3 0 8 -4 11 -10z m-3485 -20
c0 -5 -4 -10 -10 -10 -5 0 -10 5 -10 10 0 6 5 10 10 10 6 0 10 -4 10 -10z
m2664 -70 l41 -18 -36 5 c-20 3 -39 1 -43 -5 -3 -5 4 -9 17 -8 13 1 21 -4 20
-11 -2 -7 2 -13 7 -13 12 0 -20 -49 -32 -50 -4 0 -9 9 -13 19 -3 10 -14 21
-24 24 -26 6 -48 47 -26 47 8 0 15 -4 15 -10 0 -5 5 -10 10 -10 6 0 10 4 10 8
0 17 -53 32 -118 33 -57 1 -62 3 -32 10 51 11 158 1 204 -21z m-954 -164 c0
-11 -19 -15 -25 -6 -3 5 1 10 9 10 9 0 16 -2 16 -4z m1385 -207 c24 -6 51 -19
59 -28 16 -18 10 -20 -51 -21 -12 0 -25 -5 -28 -10 -3 -6 -15 -10 -26 -10 -10
0 -19 -4 -19 -10 0 -5 -5 -10 -11 -10 -5 0 -7 5 -4 10 3 6 -4 10 -16 10 -39 0
-89 23 -89 41 0 32 106 48 185 28z m210 -109 c-3 -5 -13 -10 -21 -10 -8 0 -14
5 -14 10 0 6 9 10 21 10 11 0 17 -4 14 -10z m-320 -225 c-16 -7 -36 -10 -45
-7 -11 5 -9 8 10 13 14 4 34 7 45 7 15 0 12 -3 -10 -13z m125 -5 c11 -8 5 -9
-23 -6 -21 2 -41 6 -44 10 -10 10 51 7 67 -4z m-90 -22 c0 -4 -14 -8 -31 -8
-16 0 -28 4 -25 8 2 4 16 8 30 8 14 0 26 -4 26 -8z m66 2 c19 0 7 -27 -16 -33
-25 -6 -44 8 -36 28 4 10 12 15 22 11 9 -3 22 -6 30 -6z m-221 -120 c3 -5 1
-10 -4 -10 -6 0 -11 5 -11 10 0 6 2 10 4 10 3 0 8 -4 11 -10z"/>
<path d="M2535 6261 c-22 -11 -33 -20 -25 -20 8 0 31 8 50 19 45 25 27 25 -25
1z"/>
<path d="M14780 5846 c-205 -31 -363 -81 -545 -171 -480 -238 -827 -715 -931
-1280 -28 -154 -26 -444 4 -590 13 -60 26 -112 29 -115 3 -3 3 9 -1 25 -14 68
-18 130 -7 115 6 -8 11 -29 11 -47 0 -39 25 -136 45 -179 18 -39 30 -117 14
-94 -8 11 -9 8 -4 -14 9 -44 104 -240 112 -233 8 8 33 -12 33 -26 0 -6 -7 -2
-15 9 -8 10 -15 14 -15 9 0 -17 111 -183 178 -266 76 -94 224 -236 322 -310
99 -73 178 -120 302 -178 103 -49 333 -131 364 -131 10 0 15 -3 12 -6 -3 -3
-29 -1 -57 4 -54 10 -65 7 -28 -8 50 -20 -15 -9 -109 19 -54 16 -100 28 -102
26 -2 -2 47 -20 109 -39 664 -208 1371 -24 1864 486 167 172 321 419 400 638
33 92 79 278 96 385 25 159 14 417 -27 598 -23 99 -28 76 -8 -34 20 -116 24
-372 7 -524 -43 -379 -267 -829 -544 -1089 -103 -96 -329 -263 -329 -243 0 2
31 25 69 50 210 140 404 344 531 560 129 220 191 404 235 695 46 312 -19 702
-166 995 -211 418 -573 735 -1012 886 -200 69 -292 84 -537 87 -140 2 -245 -2
-300 -10z m453 -133 c-7 -2 -21 -2 -30 0 -10 3 -4 5 12 5 17 0 24 -2 18 -5z
m90 -10 c-7 -2 -21 -2 -30 0 -10 3 -4 5 12 5 17 0 24 -2 18 -5z m-18 -23 c185
-20 319 -61 520 -160 469 -231 803 -691 874 -1204 16 -112 14 -358 -4 -462
-20 -116 -69 -289 -112 -389 -215 -503 -658 -844 -1214 -935 -193 -31 -385
-28 -568 10 -345 71 -593 203 -850 454 -102 99 -136 124 -77 57 12 -13 16 -21
9 -17 -6 3 -26 25 -45 49 -18 23 -24 35 -14 27 27 -21 20 -8 -56 105 -117 175
-184 328 -245 560 -24 91 -27 118 -27 287 -1 104 -4 188 -8 188 -14 0 -9 -304
7 -391 25 -146 25 -157 0 -59 -25 92 -40 280 -37 429 3 100 90 437 108 418 2
-2 -3 -26 -11 -53 -27 -90 -15 -71 24 36 40 112 103 242 157 328 37 57 41 67
22 56 -8 -4 -10 -3 -5 2 5 5 14 9 19 9 6 0 13 6 16 14 3 9 0 11 -9 6 -8 -5
-11 -4 -6 1 5 5 12 9 15 9 13 0 32 16 32 27 0 6 -7 5 -17 -3 -16 -13 -17 -12
-4 4 8 9 16 15 19 12 7 -7 52 35 52 48 0 6 -10 2 -22 -9 l-23 -19 19 23 c11
12 21 20 24 17 3 -2 52 40 109 95 207 197 438 324 720 394 139 34 164 38 298
46 126 7 149 6 310 -10z m334 -47 c69 -24 144 -52 166 -62 22 -10 52 -21 67
-25 14 -3 46 -22 70 -41 24 -19 81 -53 128 -77 90 -44 171 -112 197 -163 16
-30 81 -94 97 -95 4 0 6 -9 3 -20 -5 -18 15 -48 105 -164 23 -30 98 -170 98
-183 0 -4 -27 37 -60 90 -79 131 -120 186 -209 286 -200 223 -483 395 -801
486 -69 20 -76 23 -36 18 28 -3 106 -26 175 -50z m-1689 -386 c0 -2 -15 -16
-32 -33 l-33 -29 29 33 c28 30 36 37 36 29z m2641 -483 c5 -15 8 -29 5 -31 -2
-2 -8 10 -14 26 -13 38 -5 41 9 5z m106 -316 c-3 -8 -6 -5 -6 6 -1 11 2 17 5
13 3 -3 4 -12 1 -19z m34 -503 l-9 -40 -1 37 c-1 41 11 84 17 58 1 -9 -2 -33
-7 -55z m-14 -139 c-3 -17 -10 -49 -17 -71 -18 -62 -40 -156 -46 -195 -3 -19
-17 -46 -31 -60 -22 -21 -25 -22 -18 -5 29 71 67 200 86 292 13 59 25 100 27
89 2 -10 2 -32 -1 -50z m-3178 -156 c0 -9 -4 -8 -9 5 -5 11 -9 27 -9 35 0 9 4
8 9 -5 5 -11 9 -27 9 -35z m61 -165 c0 -5 -5 -3 -10 5 -5 8 -10 20 -10 25 0 6
5 3 10 -5 5 -8 10 -19 10 -25z m2971 -124 c-11 -20 -27 -44 -36 -51 -11 -10
-8 4 11 43 15 31 31 54 36 51 4 -3 -1 -22 -11 -43z m-2900 -13 c12 -24 48 -82
80 -130 33 -49 57 -88 55 -88 -12 0 -166 236 -166 253 0 17 11 4 31 -35z
m2838 -90 c-5 -18 -17 -43 -26 -55 -91 -111 -133 -160 -149 -173 -10 -8 0 8
22 35 23 28 67 89 99 138 32 48 59 87 61 87 1 0 -2 -15 -7 -32z m-214 -287
c-8 -16 -29 -40 -47 -52 -18 -12 -62 -46 -98 -74 -70 -56 -120 -90 -120 -82 0
2 33 29 73 59 39 31 101 83 137 116 36 34 66 61 68 62 1 0 -4 -13 -13 -29z
m-2270 -73 l40 -43 -45 40 c-25 22 -47 41 -49 43 -2 1 0 2 5 2 6 0 28 -19 49
-42z m287 -200 c81 -46 100 -64 26 -27 -54 27 -242 154 -259 175 -7 9 25 -11
71 -45 47 -33 119 -80 162 -103z m1699 49 c-13 -16 -111 -71 -116 -65 -4 4
114 78 124 78 2 0 -2 -6 -8 -13z m-241 -127 c-8 -5 -19 -10 -25 -10 -5 0 -3 5
5 10 8 5 20 10 25 10 6 0 3 -5 -5 -10z m140 -65 c0 -2 -22 -16 -50 -30 -27
-14 -50 -23 -50 -20 0 2 21 16 48 29 53 28 52 28 52 21z m-363 -11 c-3 -3 -12
-4 -19 -1 -8 3 -5 6 6 6 11 1 17 -2 13 -5z m-747 -195 c36 -6 128 -14 205 -19
l140 -7 -115 0 c-63 0 -141 3 -173 7 -32 3 -60 3 -63 -2 -3 -4 10 -9 28 -9 18
-1 24 -3 13 -5 -11 -3 -40 0 -65 5 -39 8 -41 9 -15 11 28 2 26 3 -15 15 -56
16 -26 18 60 4z m-143 -5 c-3 -3 -12 -4 -19 -1 -8 3 -5 6 6 6 11 1 17 -2 13
-5z m56 -11 c-7 -2 -21 -2 -30 0 -10 3 -4 5 12 5 17 0 24 -2 18 -5z m205 -30
c-10 -2 -26 -2 -35 0 -10 3 -2 5 17 5 19 0 27 -2 18 -5z"/>
<path d="M13531 4504 c0 -11 3 -14 6 -6 3 7 2 16 -1 19 -3 4 -6 -2 -5 -13z"/>
<path d="M13522 4460 c0 -14 2 -19 5 -12 2 6 2 18 0 25 -3 6 -5 1 -5 -13z"/>
<path d="M13500 4360 c-7 -39 -10 -73 -8 -76 3 -2 10 28 17 67 6 40 10 74 7
76 -2 2 -9 -28 -16 -67z"/>
<path d="M13366 5561 c-6 -10 43 -25 52 -16 3 3 -2 5 -11 5 -9 0 -17 5 -17 10
0 12 -17 13 -24 1z"/>
<path d="M17301 4770 c0 -8 4 -24 9 -35 5 -13 9 -14 9 -5 0 8 -4 24 -9 35 -5
13 -9 14 -9 5z"/>
<path d="M16801 4735 c1 -19 18 -51 18 -35 0 8 -4 22 -9 30 -5 8 -9 11 -9 5z"/>
<path d="M16905 4680 c-3 -5 -5 -42 -4 -82 1 -40 -3 -84 -8 -97 -8 -20 -12
-12 -32 63 -13 48 -25 85 -28 82 -3 -2 2 -29 11 -58 71 -244 75 -623 10 -883
-91 -362 -284 -697 -539 -937 -317 -297 -723 -475 -1160 -509 -137 -11 -290
-4 -425 18 -19 3 -33 3 -30 0 10 -11 186 -37 255 -38 68 -1 69 -1 30 -12 -41
-10 -72 -33 -61 -44 3 -4 6 -3 6 2 0 4 9 -4 20 -17 12 -16 35 -28 62 -33 24
-5 45 -9 48 -10 3 -1 14 -5 25 -9 55 -21 75 -26 137 -36 178 -27 270 -29 443
-6 170 23 214 26 220 16 7 -12 54 8 79 33 10 10 24 16 32 13 8 -3 14 -1 14 5
0 6 5 7 10 4 6 -3 10 -2 10 4 0 5 8 9 18 8 26 -1 125 47 209 103 41 27 81 50
88 50 8 0 20 9 28 20 8 11 17 17 20 13 4 -3 7 -1 7 6 0 7 5 9 10 6 6 -4 43 28
83 70 40 42 80 77 90 79 9 1 27 17 39 36 23 33 37 44 70 54 22 7 166 180 232
281 120 181 202 342 257 504 28 82 39 140 18 96 -6 -13 -7 43 -2 155 10 228 8
334 -7 433 -7 45 -14 91 -15 102 -2 11 -8 40 -15 65 -7 25 -13 52 -15 61 -2 9
-17 49 -34 89 -17 39 -31 81 -31 92 0 14 -5 18 -16 14 -12 -5 -15 -2 -10 10 4
9 -1 29 -11 43 -9 14 -27 46 -40 71 -12 25 -36 53 -52 63 -34 20 -38 20 -46 7z"/>
<path d="M17341 4625 c0 -11 4 -38 9 -60 38 -165 54 -406 40 -594 -35 -458
-206 -904 -488 -1271 -92 -119 -330 -353 -440 -430 -203 -144 -388 -242 -587
-310 -127 -44 -308 -88 -415 -99 -53 -6 -573 -14 -1185 -18 -1022 -8 -1057 -8
-565 -13 289 -3 468 -6 398 -8 -71 -1 -128 -5 -128 -10 0 -12 93 -31 109 -22
13 7 32 4 121 -21 l45 -13 -45 -7 c-45 -6 826 -15 1035 -10 125 3 324 25 405
45 222 56 337 97 535 190 193 92 467 296 632 470 382 404 599 877 654 1428 6
64 9 123 7 130 -3 7 -8 -25 -12 -72 -5 -47 -11 -103 -15 -125 l-6 -39 -23 24
c-30 33 -29 68 3 76 14 3 25 11 25 17 0 6 -3 7 -7 4 -3 -4 -12 1 -19 11 -10
12 -13 61 -14 177 0 88 -7 214 -15 280 -15 118 -53 309 -54 270z m-771 -2379
c0 -2 -8 -10 -17 -17 -16 -13 -17 -12 -4 4 13 16 21 21 21 13z"/>
<path d="M16801 4564 c0 -11 3 -14 6 -6 3 7 2 16 -1 19 -3 4 -6 -2 -5 -13z"/>
<path d="M17511 4484 c0 -11 3 -14 6 -6 3 7 2 16 -1 19 -3 4 -6 -2 -5 -13z"/>
<path d="M17544 4050 c0 -74 1 -105 3 -67 2 37 2 97 0 135 -2 37 -3 6 -3 -68z"/>
<path d="M17527 3830 c-27 -263 -125 -581 -266 -857 -120 -236 -251 -415 -450
-614 -366 -365 -833 -600 -1319 -664 -93 -12 -289 -15 -1110 -16 -548 -1
-1037 -4 -1087 -8 -49 -5 392 -9 980 -9 1146 -2 1192 -1 1414 49 400 90 807
316 1126 626 322 311 548 711 665 1173 32 127 63 324 58 367 -2 15 -7 -6 -11
-47z"/>
<path d="M8738 3743 c6 -2 18 -2 25 0 6 3 1 5 -13 5 -14 0 -19 -2 -12 -5z"/>
<path d="M6146 3271 c-13 -5 -16 -10 -9 -14 7 -4 15 -2 18 4 4 5 14 8 22 5 8
-3 11 -1 8 4 -7 11 -12 12 -39 1z"/>
<path d="M7481 2776 c2 -2 15 -9 29 -15 24 -11 24 -11 6 3 -16 13 -49 24 -35
12z"/>
<path d="M14668 2283 c7 -3 16 -2 19 1 4 3 -2 6 -13 5 -11 0 -14 -3 -6 -6z"/>
<path d="M11583 1743 c9 -2 25 -2 35 0 9 3 1 5 -18 5 -19 0 -27 -2 -17 -5z"/>
<path d="M12143 1663 c15 -2 37 -2 50 0 12 2 0 4 -28 4 -27 0 -38 -2 -22 -4z"/>
<path d="M12258 1663 c23 -2 59 -2 80 0 20 2 1 4 -43 4 -44 0 -61 -2 -37 -4z"/>
<path d="M12978 1663 c23 -2 61 -2 85 0 23 2 4 4 -43 4 -47 0 -66 -2 -42 -4z"/>
<path d="M13118 1663 c6 -2 18 -2 25 0 6 3 1 5 -13 5 -14 0 -19 -2 -12 -5z"/>
</g>
</svg>
